REM DIRINDEX 1\2\4\18,1\2\4\19,1\2\5\20,1\2\5\21,1\2\6\22,1\2\6\23,1\2\7\24,1\2\7\25,1\2\8\26,1\2\8\27,1\2\9\28,1\2\9\29,1\2\10\30,1\3\11\31,1\3\11\32,1\3\11\33,1\3\11\34,1\3\11\35,1\3\12\36,1\3\12\37,1\3\12\38,1\3\12\39,1\3\12\40,1\3\13\41,1\3\13\42,1\3\13\43,1\3\13\44,1\3\13\45,1\3\14\46,1\3\14\47,1\3\14\48,1\3\14\49,1\3\15\50,1\3\15\51,1\3\15\52,1\3\15\53,1\3\15\54,1\3\16\55,1\3\16\56,1\3\16\57,1\3\16\58,1\3\16\59,1\3\17\60,1\3\17\61
REM DIRNAME "folder01","folder02","folder03","folder04","folder05","folder06","folder07","folder08","folder09","folder10","folder11","folder12","folder13","folder14","folder15","folder16","folder17","folder18","folder19","folder20","folder21","folder22","folder23","folder24","folder25","folder26","folder27","folder28","folder29","folder30","folder31","folder32","folder33","folder34","folder35","folder36","folder37","folder38","folder39","folder40","folder41","folder42","folder43","folder44","folder45","folder46","folder47","folder48","folder49","folder50","folder51","folder52","folder53","folder54","folder55","folder56","folder57","folder58","folder59","folder60","folder61"
TITLE ""
FILE "TOEIC LR Kinnojyukugo_11.mp3" MP3
  TRACK 01 AUDIO
    TITLE "0:"
    INDEX 01 00:00:00
  TRACK 02 AUDIO
    TITLE "50:cjc160_5066"
    INDEX 01 00:00:12
  TRACK 03 AUDIO
    TITLE "0:"
    INDEX 01 00:01:41
  TRACK 04 AUDIO
    TITLE "51:cjc160_5067"
    INDEX 01 00:02:05
  TRACK 05 AUDIO
    TITLE "0:"
    INDEX 01 00:03:22
  TRACK 06 AUDIO
    TITLE "52:cjc160_5068"
    INDEX 01 00:03:63
  TRACK 07 AUDIO
    TITLE "0:"
    INDEX 01 00:05:70
  TRACK 08 AUDIO
    TITLE "53:cjc160_5069"
    INDEX 01 00:06:40
  TRACK 09 AUDIO
    TITLE "0:"
    INDEX 01 00:08:65
  TRACK 10 AUDIO
    TITLE "54:cjc160_5070"
    INDEX 01 00:09:15
  TRACK 11 AUDIO
    TITLE "0:"
    INDEX 01 00:11:39
  TRACK 12 AUDIO
    TITLE "50:cjc160_5071"
    INDEX 01 00:12:39
  TRACK 13 AUDIO
    TITLE "0:"
    INDEX 01 00:13:50
  TRACK 14 AUDIO
    TITLE "51:cjc160_5072"
    INDEX 01 00:14:12
  TRACK 15 AUDIO
    TITLE "0:"
    INDEX 01 00:15:26
  TRACK 16 AUDIO
    TITLE "52:cjc160_5073"
    INDEX 01 00:15:67
  TRACK 17 AUDIO
    TITLE "0:"
    INDEX 01 00:17:32
  TRACK 18 AUDIO
    TITLE "53:cjc160_5074"
    INDEX 01 00:17:71
  TRACK 19 AUDIO
    TITLE "0:"
    INDEX 01 00:19:53
  TRACK 20 AUDIO
    TITLE "54:cjc160_5075"
    INDEX 01 00:20:03
  TRACK 21 AUDIO
    TITLE "0:"
    INDEX 01 00:21:58
  TRACK 22 AUDIO
    TITLE "50:cjc160_5076"
    INDEX 01 00:22:59
  TRACK 23 AUDIO
    TITLE "0:"
    INDEX 01 00:24:19
  TRACK 24 AUDIO
    TITLE "51:cjc160_5077"
    INDEX 01 00:24:56
  TRACK 25 AUDIO
    TITLE "0:"
    INDEX 01 00:25:73
  TRACK 26 AUDIO
    TITLE "52:cjc160_5078"
    INDEX 01 00:26:53
  TRACK 27 AUDIO
    TITLE "0:"
    INDEX 01 00:28:32
  TRACK 28 AUDIO
    TITLE "53:cjc160_5079"
    INDEX 01 00:28:73
  TRACK 29 AUDIO
    TITLE "0:"
    INDEX 01 00:31:05
  TRACK 30 AUDIO
    TITLE "54:cjc160_5080"
    INDEX 01 00:31:30
  TRACK 31 AUDIO
    TITLE "0:"
    INDEX 01 00:33:39
  TRACK 32 AUDIO
    TITLE "50:cjc160_5081"
    INDEX 01 00:34:37
  TRACK 33 AUDIO
    TITLE "0:"
    INDEX 01 00:35:60
  TRACK 34 AUDIO
    TITLE "51:cjc160_5082"
    INDEX 01 00:36:22
  TRACK 35 AUDIO
    TITLE "0:"
    INDEX 01 00:37:43
  TRACK 36 AUDIO
    TITLE "52:cjc160_5083"
    INDEX 01 00:38:09
  TRACK 37 AUDIO
    TITLE "0:"
    INDEX 01 00:40:59
  TRACK 38 AUDIO
    TITLE "53:cjc160_5084"
    INDEX 01 00:41:25
  TRACK 39 AUDIO
    TITLE "0:"
    INDEX 01 00:44:27
  TRACK 40 AUDIO
    TITLE "54:cjc160_5085"
    INDEX 01 00:44:53
  TRACK 41 AUDIO
    TITLE "0:"
    INDEX 01 00:47:57
  TRACK 42 AUDIO
    TITLE "50:cjc160_5086"
    INDEX 01 00:48:58
  TRACK 43 AUDIO
    TITLE "0:"
    INDEX 01 00:49:71
  TRACK 44 AUDIO
    TITLE "51:cjc160_5087"
    INDEX 01 00:50:38
  TRACK 45 AUDIO
    TITLE "0:"
    INDEX 01 00:51:39
  TRACK 46 AUDIO
    TITLE "52:cjc160_5088"
    INDEX 01 00:52:03
  TRACK 47 AUDIO
    TITLE "0:"
    INDEX 01 00:53:75
  TRACK 48 AUDIO
    TITLE "53:cjc160_5089"
    INDEX 01 00:54:45
  TRACK 49 AUDIO
    TITLE "0:"
    INDEX 01 00:56:60
  TRACK 50 AUDIO
    TITLE "54:cjc160_5090"
    INDEX 01 00:57:12
  TRACK 51 AUDIO
    TITLE "0:"
    INDEX 01 00:59:25
  TRACK 52 AUDIO
    TITLE "50:cjc160_5091"
    INDEX 01 01:00:26
  TRACK 53 AUDIO
    TITLE "0:"
    INDEX 01 01:01:59
  TRACK 54 AUDIO
    TITLE "51:cjc160_5092"
    INDEX 01 01:02:19
  TRACK 55 AUDIO
    TITLE "0:"
    INDEX 01 01:03:58
  TRACK 56 AUDIO
    TITLE "52:cjc160_5093"
    INDEX 01 01:04:24
  TRACK 57 AUDIO
    TITLE "0:"
    INDEX 01 01:05:74
  TRACK 58 AUDIO
    TITLE "53:cjc160_5094"
    INDEX 01 01:06:39
  TRACK 59 AUDIO
    TITLE "0:"
    INDEX 01 01:08:14
  TRACK 60 AUDIO
    TITLE "54:cjc160_5095"
    INDEX 01 01:08:41
  TRACK 61 AUDIO
    TITLE "0:"
    INDEX 01 01:10:17
  TRACK 62 AUDIO
    TITLE "50:cjc160_5096"
    INDEX 01 01:11:18
  TRACK 63 AUDIO
    TITLE "0:"
    INDEX 01 01:12:57
  TRACK 64 AUDIO
    TITLE "51:cjc160_5097"
    INDEX 01 01:13:19
  TRACK 65 AUDIO
    TITLE "0:"
    INDEX 01 01:14:58
  TRACK 66 AUDIO
    TITLE "52:cjc160_5098"
    INDEX 01 01:15:20
  TRACK 67 AUDIO
    TITLE "0:"
    INDEX 01 01:17:05
  TRACK 68 AUDIO
    TITLE "53:cjc160_5099"
    INDEX 01 01:17:44
  TRACK 69 AUDIO
    TITLE "0:"
    INDEX 01 01:19:37
  TRACK 70 AUDIO
    TITLE "54:cjc160_5100"
    INDEX 01 01:19:63
  TRACK 71 AUDIO
    TITLE "0:"
    INDEX 01 01:21:54
  TRACK 72 AUDIO
    TITLE "50:cjc160_5101"
    INDEX 01 01:22:55
  TRACK 73 AUDIO
    TITLE "0:"
    INDEX 01 01:24:13
  TRACK 74 AUDIO
    TITLE "51:cjc160_5102"
    INDEX 01 01:24:50
  TRACK 75 AUDIO
    TITLE "0:"
    INDEX 01 01:25:67
  TRACK 76 AUDIO
    TITLE "52:cjc160_5103"
    INDEX 01 01:26:33
  TRACK 77 AUDIO
    TITLE "0:"
    INDEX 01 01:28:48
  TRACK 78 AUDIO
    TITLE "53:cjc160_5104"
    INDEX 01 01:29:12
  TRACK 79 AUDIO
    TITLE "0:"
    INDEX 01 01:31:40
  TRACK 80 AUDIO
    TITLE "54:cjc160_5105"
    INDEX 01 01:31:66
  TRACK 81 AUDIO
    TITLE "0:"
    INDEX 01 01:34:21
  TRACK 82 AUDIO
    TITLE "50:cjc160_5106"
    INDEX 01 01:35:21
  TRACK 83 AUDIO
    TITLE "0:"
    INDEX 01 01:36:40
  TRACK 84 AUDIO
    TITLE "51:cjc160_5107"
    INDEX 01 01:37:06
  TRACK 85 AUDIO
    TITLE "0:"
    INDEX 01 01:38:33
  TRACK 86 AUDIO
    TITLE "52:cjc160_5108"
    INDEX 01 01:38:70
  TRACK 87 AUDIO
    TITLE "0:"
    INDEX 01 01:40:55
  TRACK 88 AUDIO
    TITLE "53:cjc160_5109"
    INDEX 01 01:41:19
  TRACK 89 AUDIO
    TITLE "0:"
    INDEX 01 01:43:12
  TRACK 90 AUDIO
    TITLE "54:cjc160_5110"
    INDEX 01 01:43:38
  TRACK 91 AUDIO
    TITLE "0:"
    INDEX 01 01:45:33
  TRACK 92 AUDIO
    TITLE "50:cjc160_5111"
    INDEX 01 01:46:32
  TRACK 93 AUDIO
    TITLE "0:"
    INDEX 01 01:47:53
  TRACK 94 AUDIO
    TITLE "51:cjc160_5112"
    INDEX 01 01:48:15
  TRACK 95 AUDIO
    TITLE "0:"
    INDEX 01 01:49:31
  TRACK 96 AUDIO
    TITLE "52:cjc160_5113"
    INDEX 01 01:49:70
  TRACK 97 AUDIO
    TITLE "0:"
    INDEX 01 01:51:67
  TRACK 98 AUDIO
    TITLE "53:cjc160_5114"
    INDEX 01 01:52:31
  TRACK 99 AUDIO
    TITLE "0:"
    INDEX 01 01:54:43
  TRACK 100 AUDIO
    TITLE "54:cjc160_5115"
    INDEX 01 01:54:71
  TRACK 101 AUDIO
    TITLE "0:"
    INDEX 01 01:57:09
  TRACK 102 AUDIO
    TITLE "50:cjc160_5116"
    INDEX 01 01:58:10
  TRACK 103 AUDIO
    TITLE "0:"
    INDEX 01 01:59:51
  TRACK 104 AUDIO
    TITLE "51:cjc160_5117"
    INDEX 01 02:00:15
  TRACK 105 AUDIO
    TITLE "0:"
    INDEX 01 02:01:20
  TRACK 106 AUDIO
    TITLE "52:cjc160_5118"
    INDEX 01 02:01:57
  TRACK 107 AUDIO
    TITLE "0:"
    INDEX 01 02:03:15
  TRACK 108 AUDIO
    TITLE "53:cjc160_5119"
    INDEX 01 02:03:54
  TRACK 109 AUDIO
    TITLE "0:"
    INDEX 01 02:05:45
  TRACK 110 AUDIO
    TITLE "54:cjc160_5120"
    INDEX 01 02:05:69
  TRACK 111 AUDIO
    TITLE "0:"
    INDEX 01 02:07:60
  TRACK 112 AUDIO
    TITLE "50:cjc160_5121"
    INDEX 01 02:08:59
  TRACK 113 AUDIO
    TITLE "0:"
    INDEX 01 02:10:15
  TRACK 114 AUDIO
    TITLE "51:cjc160_5122"
    INDEX 01 02:10:54
  TRACK 115 AUDIO
    TITLE "0:"
    INDEX 01 02:11:73
  TRACK 116 AUDIO
    TITLE "52:cjc160_5123"
    INDEX 01 02:12:37
  TRACK 117 AUDIO
    TITLE "0:"
    INDEX 01 02:14:58
  TRACK 118 AUDIO
    TITLE "53:cjc160_5124"
    INDEX 01 02:15:22
  TRACK 119 AUDIO
    TITLE "0:"
    INDEX 01 02:17:48
  TRACK 120 AUDIO
    TITLE "54:cjc160_5125"
    INDEX 01 02:18:01
  TRACK 121 AUDIO
    TITLE "0:"
    INDEX 01 02:20:25
  TRACK 122 AUDIO
    TITLE "50:cjc160_5126"
    INDEX 01 02:21:27
  TRACK 123 AUDIO
    TITLE "0:"
    INDEX 01 02:22:40
  TRACK 124 AUDIO
    TITLE "51:cjc160_5127"
    INDEX 01 02:23:04
  TRACK 125 AUDIO
    TITLE "0:"
    INDEX 01 02:24:23
  TRACK 126 AUDIO
    TITLE "52:cjc160_5128"
    INDEX 01 02:24:68
  TRACK 127 AUDIO
    TITLE "0:"
    INDEX 01 02:27:51
  TRACK 128 AUDIO
    TITLE "53:cjc160_5129"
    INDEX 01 02:28:15
  TRACK 129 AUDIO
    TITLE "0:"
    INDEX 01 02:30:30
  TRACK 130 AUDIO
    TITLE "54:cjc160_5130"
    INDEX 01 02:30:61
  TRACK 131 AUDIO
    TITLE "0:"
    INDEX 01 02:33:04
  TRACK 132 AUDIO
    TITLE "50:cjc160_5131"
    INDEX 01 02:34:06
  TRACK 133 AUDIO
    TITLE "0:"
    INDEX 01 02:35:27
  TRACK 134 AUDIO
    TITLE "51:cjc160_5132"
    INDEX 01 02:35:66
  TRACK 135 AUDIO
    TITLE "0:"
    INDEX 01 02:37:28
  TRACK 136 AUDIO
    TITLE "52:cjc160_5133"
    INDEX 01 02:37:63
  TRACK 137 AUDIO
    TITLE "0:"
    INDEX 01 02:40:55
  TRACK 138 AUDIO
    TITLE "53:cjc160_5134"
    INDEX 01 02:41:14
  TRACK 139 AUDIO
    TITLE "0:"
    INDEX 01 02:43:28
  TRACK 140 AUDIO
    TITLE "54:cjc160_5135"
    INDEX 01 02:43:52
  TRACK 141 AUDIO
    TITLE "0:"
    INDEX 01 02:45:64
  TRACK 142 AUDIO
    TITLE "50:cjc160_5136"
    INDEX 01 02:46:64
  TRACK 143 AUDIO
    TITLE "0:"
    INDEX 01 02:48:04
  TRACK 144 AUDIO
    TITLE "51:cjc160_5137"
    INDEX 01 02:48:43
  TRACK 145 AUDIO
    TITLE "0:"
    INDEX 01 02:50:24
  TRACK 146 AUDIO
    TITLE "52:cjc160_5138"
    INDEX 01 02:50:64
  TRACK 147 AUDIO
    TITLE "0:"
    INDEX 01 02:53:17
  TRACK 148 AUDIO
    TITLE "53:cjc160_5139"
    INDEX 01 02:53:54
  TRACK 149 AUDIO
    TITLE "0:"
    INDEX 01 02:55:69
  TRACK 150 AUDIO
    TITLE "54:cjc160_5140"
    INDEX 01 02:56:27
  TRACK 151 AUDIO
    TITLE "0:"
    INDEX 01 02:58:42
  TRACK 152 AUDIO
    TITLE "50:cjc160_5141"
    INDEX 01 02:59:51
  TRACK 153 AUDIO
    TITLE "0:"
    INDEX 01 03:00:66
  TRACK 154 AUDIO
    TITLE "51:cjc160_5142"
    INDEX 01 03:01:40
  TRACK 155 AUDIO
    TITLE "0:"
    INDEX 01 03:04:24
  TRACK 156 AUDIO
    TITLE "52:cjc160_5143"
    INDEX 01 03:04:64
  TRACK 157 AUDIO
    TITLE "0:"
    INDEX 01 03:08:46
  TRACK 158 AUDIO
    TITLE "53:cjc160_5144"
    INDEX 01 03:09:10
  TRACK 159 AUDIO
    TITLE "0:"
    INDEX 01 03:13:08
  TRACK 160 AUDIO
    TITLE "54:cjc160_5145"
    INDEX 01 03:13:33
  TRACK 161 AUDIO
    TITLE "0:"
    INDEX 01 03:17:29
  TRACK 162 AUDIO
    TITLE "50:cjc160_5146"
    INDEX 01 03:18:31
  TRACK 163 AUDIO
    TITLE "0:"
    INDEX 01 03:19:38
  TRACK 164 AUDIO
    TITLE "51:cjc160_5147"
    INDEX 01 03:19:75
  TRACK 165 AUDIO
    TITLE "0:"
    INDEX 01 03:21:54
  TRACK 166 AUDIO
    TITLE "52:cjc160_5148"
    INDEX 01 03:22:19
  TRACK 167 AUDIO
    TITLE "0:"
    INDEX 01 03:24:43
  TRACK 168 AUDIO
    TITLE "53:cjc160_5149"
    INDEX 01 03:25:05
  TRACK 169 AUDIO
    TITLE "0:"
    INDEX 01 03:27:18
  TRACK 170 AUDIO
    TITLE "54:cjc160_5150"
    INDEX 01 03:27:43
  TRACK 171 AUDIO
    TITLE "0:"
    INDEX 01 03:29:56
  TRACK 172 AUDIO
    TITLE "50:cjc160_5151"
    INDEX 01 03:30:55
  TRACK 173 AUDIO
    TITLE "0:"
    INDEX 01 03:32:07
  TRACK 174 AUDIO
    TITLE "51:cjc160_5152"
    INDEX 01 03:32:46
  TRACK 175 AUDIO
    TITLE "0:"
    INDEX 01 03:34:10
  TRACK 176 AUDIO
    TITLE "52:cjc160_5153"
    INDEX 01 03:34:49
  TRACK 177 AUDIO
    TITLE "0:"
    INDEX 01 03:37:63
  TRACK 178 AUDIO
    TITLE "53:cjc160_5154"
    INDEX 01 03:38:29
  TRACK 179 AUDIO
    TITLE "0:"
    INDEX 01 03:41:61
  TRACK 180 AUDIO
    TITLE "54:cjc160_5155"
    INDEX 01 03:42:13
  TRACK 181 AUDIO
    TITLE "0:"
    INDEX 01 03:45:43
  TRACK 182 AUDIO
    TITLE "50:cjc160_5156"
    INDEX 01 03:46:48
  TRACK 183 AUDIO
    TITLE "0:"
    INDEX 01 03:47:56
  TRACK 184 AUDIO
    TITLE "51:cjc160_5157"
    INDEX 01 03:48:18
  TRACK 185 AUDIO
    TITLE "0:"
    INDEX 01 03:50:15
  TRACK 186 AUDIO
    TITLE "52:cjc160_5158"
    INDEX 01 03:50:54
  TRACK 187 AUDIO
    TITLE "0:"
    INDEX 01 03:54:32
  TRACK 188 AUDIO
    TITLE "53:cjc160_5159"
    INDEX 01 03:54:69
  TRACK 189 AUDIO
    TITLE "0:"
    INDEX 01 03:58:22
  TRACK 190 AUDIO
    TITLE "54:cjc160_5160"
    INDEX 01 03:58:52
  TRACK 191 AUDIO
    TITLE "0:"
    INDEX 01 04:02:04
  TRACK 192 AUDIO
    TITLE "50:cjc160_5161"
    INDEX 01 04:03:12
  TRACK 193 AUDIO
    TITLE "0:"
    INDEX 01 04:04:54
  TRACK 194 AUDIO
    TITLE "51:cjc160_5162"
    INDEX 01 04:05:18
  TRACK 195 AUDIO
    TITLE "0:"
    INDEX 01 04:06:31
  TRACK 196 AUDIO
    TITLE "52:cjc160_5163"
    INDEX 01 04:07:03
  TRACK 197 AUDIO
    TITLE "0:"
    INDEX 01 04:09:61
  TRACK 198 AUDIO
    TITLE "53:cjc160_5164"
    INDEX 01 04:10:16
  TRACK 199 AUDIO
    TITLE "0:"
    INDEX 01 04:13:26
  TRACK 200 AUDIO
    TITLE "54:cjc160_5165"
    INDEX 01 04:13:49
  TRACK 201 AUDIO
    TITLE "0:"
    INDEX 01 04:16:59
  TRACK 202 AUDIO
    TITLE "50:cjc160_5166"
    INDEX 01 04:17:65
  TRACK 203 AUDIO
    TITLE "0:"
    INDEX 01 04:18:74
  TRACK 204 AUDIO
    TITLE "51:cjc160_5167"
    INDEX 01 04:19:38
  TRACK 205 AUDIO
    TITLE "0:"
    INDEX 01 04:21:39
  TRACK 206 AUDIO
    TITLE "52:cjc160_5168"
    INDEX 01 04:22:01
  TRACK 207 AUDIO
    TITLE "0:"
    INDEX 01 04:24:10
  TRACK 208 AUDIO
    TITLE "53:cjc160_5169"
    INDEX 01 04:24:53
  TRACK 209 AUDIO
    TITLE "0:"
    INDEX 01 04:26:24
  TRACK 210 AUDIO
    TITLE "54:cjc160_5170"
    INDEX 01 04:26:58
  TRACK 211 AUDIO
    TITLE "0:"
    INDEX 01 04:28:29
  TRACK 212 AUDIO
    TITLE "50:cjc160_5171"
    INDEX 01 04:29:38
  TRACK 213 AUDIO
    TITLE "0:"
    INDEX 01 04:30:57
  TRACK 214 AUDIO
    TITLE "51:cjc160_5172"
    INDEX 01 04:31:22
  TRACK 215 AUDIO
    TITLE "0:"
    INDEX 01 04:32:37
  TRACK 216 AUDIO
    TITLE "52:cjc160_5173"
    INDEX 01 04:33:01
  TRACK 217 AUDIO
    TITLE "0:"
    INDEX 01 04:35:45
  TRACK 218 AUDIO
    TITLE "53:cjc160_5174"
    INDEX 01 04:36:07
  TRACK 219 AUDIO
    TITLE "0:"
    INDEX 01 04:38:24
  TRACK 220 AUDIO
    TITLE "54:cjc160_5175"
    INDEX 01 04:38:47
  TRACK 221 AUDIO
    TITLE "0:"
    INDEX 01 04:40:64
